<svg width="1920" height="891" viewBox="0 0 1920 891" fill="none" xmlns="http://www.w3.org/2000/svg">
<g opacity="0.5">
<mask id="mask0_1011_4" style="mask-type:alpha" maskUnits="userSpaceOnUse" x="1110" y="745" width="161" height="242">
<path fill-rule="evenodd" clip-rule="evenodd" d="M1227.57 872.5L1232.54 867.536L1266.54 901.536L1270.07 898L1236.07 864L1266.54 833.536L1263 830L1232.54 860.464L1227.57 855.5L1266.54 816.536L1263 813L1224.04 851.964L1219.07 847L1266.54 799.536L1263 796L1215.54 843.464L1210.57 838.5L1266.54 782.536L1263 779L1207.04 834.964L1202.07 830L1266.54 765.536L1263 762L1198.54 826.464L1193.57 821.5L1266.54 748.536L1263 745L1190.04 817.964L1117.07 745L1113.54 748.536L1186.5 821.5L1181.54 826.464L1117.07 762L1113.54 765.536L1178 830L1173.04 834.964L1117.07 779L1113.54 782.536L1169.5 838.5L1164.54 843.464L1117.07 796L1113.54 799.536L1161 847L1156.04 851.964L1117.07 813L1113.54 816.536L1152.5 855.5L1147.54 860.464L1117.07 830L1113.54 833.536L1144 864L1110 898L1113.54 901.536L1147.54 867.536L1152.5 872.5L1110 915L1113.54 918.536L1156.04 876.036L1161 881L1110 932L1113.54 935.536L1164.54 884.536L1169.5 889.5L1110 949L1113.54 952.536L1173.04 893.036L1178 898L1110 966L1113.54 969.536L1181.54 901.536L1186.5 906.5L1110 983L1113.54 986.536L1190.04 910.036L1266.54 986.536L1270.07 983L1193.57 906.5L1198.54 901.536L1266.54 969.536L1270.07 966L1202.07 898L1207.04 893.036L1266.54 952.536L1270.07 949L1210.57 889.5L1215.54 884.536L1266.54 935.536L1270.07 932L1219.07 881L1224.04 876.036L1266.54 918.536L1270.07 915L1227.57 872.5ZM1151.07 864L1156.04 868.964L1161 864L1156.04 859.036L1151.07 864ZM1159.57 855.5L1164.54 860.464L1169.5 855.5L1164.54 850.536L1159.57 855.5ZM1168.07 847L1173.04 851.964L1178 847L1173.04 842.036L1168.07 847ZM1176.57 838.5L1181.54 843.464L1186.5 838.5L1181.54 833.536L1176.57 838.5ZM1185.07 830L1190.04 834.964L1195 830L1190.04 825.036L1185.07 830ZM1224.04 868.964L1229 864L1224.04 859.036L1219.07 864L1224.04 868.964ZM1215.54 850.536L1220.5 855.5L1215.54 860.464L1210.57 855.5L1215.54 850.536ZM1207.04 842.036L1212 847L1207.04 851.964L1202.07 847L1207.04 842.036ZM1198.54 833.536L1203.5 838.5L1198.54 843.464L1193.57 838.5L1198.54 833.536ZM1190.04 842.036L1185.07 847L1190.04 851.964L1195 847L1190.04 842.036ZM1181.54 850.536L1176.57 855.5L1181.54 860.464L1186.5 855.5L1181.54 850.536ZM1173.04 859.036L1168.07 864L1173.04 868.964L1178 864L1173.04 859.036ZM1164.54 867.536L1159.57 872.5L1164.54 877.464L1169.5 872.5L1164.54 867.536ZM1215.54 867.536L1220.5 872.5L1215.54 877.464L1210.57 872.5L1215.54 867.536ZM1207.04 859.036L1212 864L1207.04 868.964L1202.07 864L1207.04 859.036ZM1198.54 850.536L1203.5 855.5L1198.54 860.464L1193.57 855.5L1198.54 850.536ZM1168.07 881L1173.04 885.964L1178 881L1173.04 876.036L1168.07 881ZM1176.57 872.5L1181.54 877.464L1186.5 872.5L1181.54 867.536L1176.57 872.5ZM1185.07 864L1190.04 868.964L1195 864L1190.04 859.036L1185.07 864ZM1207.04 885.964L1212 881L1207.04 876.036L1202.07 881L1207.04 885.964ZM1198.54 867.536L1203.5 872.5L1198.54 877.464L1193.57 872.5L1198.54 867.536ZM1190.04 876.036L1185.07 881L1190.04 885.964L1195 881L1190.04 876.036ZM1181.54 884.536L1176.57 889.5L1181.54 894.464L1186.5 889.5L1181.54 884.536ZM1198.54 884.536L1203.5 889.5L1198.54 894.464L1193.57 889.5L1198.54 884.536ZM1190.04 893.036L1185.07 898L1190.04 902.964L1195 898L1190.04 893.036Z" fill="#E5E5E5"/>
</mask>
<g mask="url(#mask0_1011_4)">
<circle cx="1190.04" cy="863.036" r="72.5" fill="#E5E5E5"/>
</g>
</g>
<g opacity="0.5">
<mask id="mask1_1011_4" style="mask-type:alpha" maskUnits="userSpaceOnUse" x="1840" y="0" width="161" height="242">
<path fill-rule="evenodd" clip-rule="evenodd" d="M1957.57 127.5L1962.54 122.536L1996.54 156.536L2000.07 153L1966.07 119L1996.54 88.5355L1993 85L1962.54 115.464L1957.57 110.5L1996.54 71.5355L1993 68L1954.04 106.964L1949.07 102L1996.54 54.5355L1993 51L1945.54 98.4645L1940.57 93.5L1996.54 37.5355L1993 34L1937.04 89.9645L1932.07 85L1996.54 20.5355L1993 17L1928.54 81.4645L1923.57 76.5L1996.54 3.53553L1993 0L1920.04 72.9645L1847.07 0L1843.54 3.53553L1916.5 76.5L1911.54 81.4645L1847.07 17L1843.54 20.5355L1908 85L1903.04 89.9645L1847.07 34L1843.54 37.5355L1899.5 93.5L1894.54 98.4645L1847.07 51L1843.54 54.5355L1891 102L1886.04 106.964L1847.07 68L1843.54 71.5355L1882.5 110.5L1877.54 115.464L1847.07 85L1843.54 88.5355L1874 119L1840 153L1843.54 156.536L1877.54 122.536L1882.5 127.5L1840 170L1843.54 173.536L1886.04 131.036L1891 136L1840 187L1843.54 190.536L1894.54 139.536L1899.5 144.5L1840 204L1843.54 207.536L1903.04 148.036L1908 153L1840 221L1843.54 224.536L1911.54 156.536L1916.5 161.5L1840 238L1843.54 241.536L1920.04 165.036L1996.54 241.536L2000.07 238L1923.57 161.5L1928.54 156.536L1996.54 224.536L2000.07 221L1932.07 153L1937.04 148.036L1996.54 207.536L2000.07 204L1940.57 144.5L1945.54 139.536L1996.54 190.536L2000.07 187L1949.07 136L1954.04 131.036L1996.54 173.536L2000.07 170L1957.57 127.5ZM1881.07 119L1886.04 123.964L1891 119L1886.04 114.036L1881.07 119ZM1889.57 110.5L1894.54 115.464L1899.5 110.5L1894.54 105.536L1889.57 110.5ZM1898.07 102L1903.04 106.964L1908 102L1903.04 97.0355L1898.07 102ZM1906.57 93.5L1911.54 98.4645L1916.5 93.5L1911.54 88.5355L1906.57 93.5ZM1915.07 85L1920.04 89.9645L1925 85L1920.04 80.0355L1915.07 85ZM1954.04 123.964L1959 119L1954.04 114.036L1949.07 119L1954.04 123.964ZM1945.54 105.536L1950.5 110.5L1945.54 115.464L1940.57 110.5L1945.54 105.536ZM1937.04 97.0355L1942 102L1937.04 106.964L1932.07 102L1937.04 97.0355ZM1928.54 88.5355L1933.5 93.5L1928.54 98.4645L1923.57 93.5L1928.54 88.5355ZM1920.04 97.0355L1915.07 102L1920.04 106.964L1925 102L1920.04 97.0355ZM1911.54 105.536L1906.57 110.5L1911.54 115.464L1916.5 110.5L1911.54 105.536ZM1903.04 114.036L1898.07 119L1903.04 123.964L1908 119L1903.04 114.036ZM1894.54 122.536L1889.57 127.5L1894.54 132.464L1899.5 127.5L1894.54 122.536ZM1945.54 122.536L1950.5 127.5L1945.54 132.464L1940.57 127.5L1945.54 122.536ZM1937.04 114.036L1942 119L1937.04 123.964L1932.07 119L1937.04 114.036ZM1928.54 105.536L1933.5 110.5L1928.54 115.464L1923.57 110.5L1928.54 105.536ZM1898.07 136L1903.04 140.964L1908 136L1903.04 131.036L1898.07 136ZM1906.57 127.5L1911.54 132.464L1916.5 127.5L1911.54 122.536L1906.57 127.5ZM1915.07 119L1920.04 123.964L1925 119L1920.04 114.036L1915.07 119ZM1937.04 140.964L1942 136L1937.04 131.036L1932.07 136L1937.04 140.964ZM1928.54 122.536L1933.5 127.5L1928.54 132.464L1923.57 127.5L1928.54 122.536ZM1920.04 131.036L1915.07 136L1920.04 140.964L1925 136L1920.04 131.036ZM1911.54 139.536L1906.57 144.5L1911.54 149.464L1916.5 144.5L1911.54 139.536ZM1928.54 139.536L1933.5 144.5L1928.54 149.464L1923.57 144.5L1928.54 139.536ZM1920.04 148.036L1915.07 153L1920.04 157.964L1925 153L1920.04 148.036Z" fill="#E5E5E5"/>
</mask>
<g mask="url(#mask1_1011_4)">
<circle cx="1920.04" cy="118.036" r="72.5" fill="#E5E5E5"/>
</g>
</g>
<g opacity="0.5">
<mask id="mask2_1011_4" style="mask-type:alpha" maskUnits="userSpaceOnUse" x="1501" y="410" width="130" height="195">
<path fill-rule="evenodd" clip-rule="evenodd" d="M1627.42 536.424L1600.12 509.116L1596.82 512.407L1630.96 546.543L1627.42 550.079L1593.29 515.943L1590 519.234L1630.96 560.197L1627.42 563.733L1586.46 522.77L1583.17 526.062L1630.96 573.852L1627.42 577.387L1579.63 529.597L1576.34 532.889L1630.96 587.506L1627.42 591.042L1572.81 536.424L1569.52 539.716L1630.96 601.16L1627.42 604.696L1565.98 543.251L1504.54 604.696L1501 601.16L1562.44 539.716L1559.15 536.424L1504.54 591.042L1501 587.506L1555.62 532.889L1552.33 529.597L1504.54 577.387L1501 573.852L1548.79 526.062L1545.5 522.77L1504.54 563.733L1501 560.197L1541.96 519.234L1538.67 515.943L1504.54 550.079L1501 546.543L1535.14 512.407L1531.84 509.116L1504.54 536.424L1501 532.889L1528.31 505.58L1504.54 481.807L1508.07 478.272L1531.84 502.045L1535.14 498.753L1504.54 468.153L1508.07 464.617L1538.67 495.217L1541.96 491.926L1504.54 454.498L1508.07 450.963L1545.5 488.39L1548.79 485.099L1504.54 440.844L1508.07 437.309L1552.33 481.563L1555.62 478.272L1504.54 427.19L1508.07 423.654L1559.15 474.736L1562.44 471.444L1504.54 413.536L1508.07 410L1565.98 467.909L1623.89 410L1627.42 413.536L1569.52 471.444L1572.81 474.736L1623.89 423.654L1627.42 427.19L1576.34 478.272L1579.63 481.563L1623.89 437.309L1627.42 440.844L1583.17 485.099L1586.46 488.39L1623.89 450.963L1627.42 454.498L1590 491.926L1593.29 495.217L1623.89 464.617L1627.42 468.153L1596.82 498.753L1600.12 502.045L1623.89 478.272L1627.42 481.807L1603.65 505.58L1630.96 532.889L1627.42 536.424ZM1565.98 474.98L1562.69 478.272L1565.98 481.563L1569.27 478.272L1565.98 474.98ZM1559.15 481.807L1555.86 485.099L1559.15 488.39L1562.44 485.099L1559.15 481.807ZM1552.33 488.634L1549.03 491.926L1552.33 495.217L1555.62 491.926L1552.33 488.634ZM1545.5 495.461L1542.21 498.753L1545.5 502.045L1548.79 498.753L1545.5 495.461ZM1538.67 502.289L1535.38 505.58L1538.67 508.872L1541.96 505.58L1538.67 502.289ZM1593.29 502.289L1596.58 505.58L1593.29 508.872L1590 505.58L1593.29 502.289ZM1586.46 495.461L1589.75 498.753L1586.46 502.045L1583.17 498.753L1586.46 495.461ZM1579.63 488.634L1582.93 491.926L1579.63 495.217L1576.34 491.926L1579.63 488.634ZM1572.81 481.807L1576.1 485.099L1572.81 488.39L1569.52 485.099L1572.81 481.807ZM1565.98 488.634L1562.69 491.926L1565.98 495.217L1569.27 491.926L1565.98 488.634ZM1559.15 495.461L1555.86 498.753L1559.15 502.045L1562.44 498.753L1559.15 495.461ZM1552.33 502.289L1549.03 505.58L1552.33 508.872L1555.62 505.58L1552.33 502.289ZM1545.5 509.116L1542.21 512.407L1545.5 515.699L1548.79 512.407L1545.5 509.116ZM1586.46 509.116L1589.75 512.407L1586.46 515.699L1583.17 512.407L1586.46 509.116ZM1579.63 502.289L1582.93 505.58L1579.63 508.872L1576.34 505.58L1579.63 502.289ZM1572.81 495.461L1576.1 498.753L1572.81 502.045L1569.52 498.753L1572.81 495.461ZM1549.03 519.234L1552.33 522.526L1555.62 519.234L1552.33 515.943L1549.03 519.234ZM1555.86 512.407L1559.15 515.699L1562.44 512.407L1559.15 509.116L1555.86 512.407ZM1562.69 505.58L1565.98 508.872L1569.27 505.58L1565.98 502.289L1562.69 505.58ZM1579.63 522.526L1582.93 519.234L1579.63 515.943L1576.34 519.234L1579.63 522.526ZM1572.81 509.116L1576.1 512.407L1572.81 515.699L1569.52 512.407L1572.81 509.116ZM1565.98 515.943L1562.69 519.234L1565.98 522.526L1569.27 519.234L1565.98 515.943ZM1559.15 522.77L1555.86 526.062L1559.15 529.353L1562.44 526.062L1559.15 522.77ZM1572.81 522.77L1576.1 526.062L1572.81 529.353L1569.52 526.062L1572.81 522.77ZM1565.98 529.597L1562.69 532.889L1565.98 536.18L1569.27 532.889L1565.98 529.597Z" fill="#E5E5E5"/>
</mask>
<g mask="url(#mask2_1011_4)">
<circle cx="1565.98" cy="505.501" r="58.2316" fill="#E5E5E5"/>
</g>
</g>
<rect y="834" width="1920" height="68" fill="#D9D9D9"/>
</svg>
