<svg width="812" height="891" viewBox="0 0 812 891" fill="none" xmlns="http://www.w3.org/2000/svg">
<g opacity="0.5">
<mask id="mask0_1217_4" style="mask-type:alpha" maskUnits="userSpaceOnUse" x="0" y="737" width="161" height="242">
<path fill-rule="evenodd" clip-rule="evenodd" d="M117.571 864.5L122.536 859.536L156.536 893.536L160.071 890L126.071 856L156.536 825.536L153 822L122.536 852.464L117.571 847.5L156.536 808.536L153 805L114.036 843.964L109.071 839L156.536 791.536L153 788L105.536 835.464L100.571 830.5L156.536 774.536L153 771L97.0355 826.964L92.0711 822L156.536 757.536L153 754L88.5355 818.464L83.5711 813.5L156.536 740.536L153 737L80.0355 809.964L7.07107 737L3.53553 740.536L76.5 813.5L71.5355 818.464L7.07107 754L3.53553 757.536L68 822L63.0355 826.964L7.07107 771L3.53553 774.536L59.5 830.5L54.5355 835.464L7.07107 788L3.53553 791.536L51 839L46.0355 843.964L7.07107 805L3.53553 808.536L42.5 847.5L37.5355 852.464L7.07107 822L3.53553 825.536L34 856L3.295e-06 890L3.53554 893.536L37.5355 859.536L42.5 864.5L3.295e-06 907L3.53554 910.536L46.0355 868.036L51 873L3.295e-06 924L3.53554 927.536L54.5355 876.536L59.5 881.5L3.295e-06 941L3.53554 944.536L63.0355 885.036L68 890L3.295e-06 958L3.53554 961.536L71.5355 893.536L76.5 898.5L3.295e-06 975L3.53554 978.536L80.0355 902.036L156.536 978.536L160.071 975L83.5711 898.5L88.5355 893.536L156.536 961.536L160.071 958L92.0711 890L97.0355 885.036L156.536 944.536L160.071 941L100.571 881.5L105.536 876.536L156.536 927.536L160.071 924L109.071 873L114.036 868.036L156.536 910.536L160.071 907L117.571 864.5ZM41.0711 856L46.0355 860.964L51 856L46.0355 851.036L41.0711 856ZM49.5711 847.5L54.5355 852.464L59.5 847.5L54.5355 842.536L49.5711 847.5ZM58.0711 839L63.0355 843.964L68 839L63.0355 834.036L58.0711 839ZM66.5711 830.5L71.5355 835.464L76.5 830.5L71.5355 825.536L66.5711 830.5ZM75.0711 822L80.0355 826.964L85 822L80.0355 817.036L75.0711 822ZM114.036 860.964L119 856L114.036 851.036L109.071 856L114.036 860.964ZM105.536 842.536L110.5 847.5L105.536 852.464L100.571 847.5L105.536 842.536ZM97.0355 834.036L102 839L97.0355 843.964L92.0711 839L97.0355 834.036ZM88.5355 825.536L93.5 830.5L88.5355 835.464L83.5711 830.5L88.5355 825.536ZM80.0355 834.036L75.0711 839L80.0355 843.964L85 839L80.0355 834.036ZM71.5355 842.536L66.5711 847.5L71.5355 852.464L76.5 847.5L71.5355 842.536ZM63.0355 851.036L58.0711 856L63.0355 860.964L68 856L63.0355 851.036ZM54.5355 859.536L49.5711 864.5L54.5355 869.464L59.5 864.5L54.5355 859.536ZM105.536 859.536L110.5 864.5L105.536 869.464L100.571 864.5L105.536 859.536ZM97.0355 851.036L102 856L97.0355 860.964L92.0711 856L97.0355 851.036ZM88.5355 842.536L93.5 847.5L88.5355 852.464L83.5711 847.5L88.5355 842.536ZM58.0711 873L63.0355 877.964L68 873L63.0355 868.036L58.0711 873ZM66.5711 864.5L71.5355 869.464L76.5 864.5L71.5355 859.536L66.5711 864.5ZM75.0711 856L80.0355 860.964L85 856L80.0355 851.036L75.0711 856ZM97.0355 877.964L102 873L97.0355 868.036L92.0711 873L97.0355 877.964ZM88.5355 859.536L93.5 864.5L88.5355 869.464L83.5711 864.5L88.5355 859.536ZM80.0355 868.036L75.0711 873L80.0355 877.964L85 873L80.0355 868.036ZM71.5355 876.536L66.5711 881.5L71.5355 886.464L76.5 881.5L71.5355 876.536ZM88.5355 876.536L93.5 881.5L88.5355 886.464L83.5711 881.5L88.5355 876.536ZM80.0355 885.036L75.0711 890L80.0355 894.964L85 890L80.0355 885.036Z" fill="#E5E5E5"/>
</mask>
<g mask="url(#mask0_1217_4)">
<circle cx="80.0355" cy="855.036" r="72.5" fill="#E5E5E5"/>
</g>
</g>
<g opacity="0.5">
<mask id="mask1_1217_4" style="mask-type:alpha" maskUnits="userSpaceOnUse" x="732" y="0" width="161" height="242">
<path fill-rule="evenodd" clip-rule="evenodd" d="M849.571 127.5L854.536 122.536L888.536 156.536L892.071 153L858.071 119L888.536 88.5355L885 85L854.536 115.464L849.571 110.5L888.536 71.5355L885 68L846.036 106.964L841.071 102L888.536 54.5355L885 51L837.536 98.4645L832.571 93.5L888.536 37.5355L885 34L829.036 89.9645L824.071 85L888.536 20.5355L885 17L820.536 81.4645L815.571 76.5L888.536 3.53553L885 0L812.036 72.9645L739.071 0L735.536 3.53553L808.5 76.5L803.536 81.4645L739.071 17L735.536 20.5355L800 85L795.036 89.9645L739.071 34L735.536 37.5355L791.5 93.5L786.536 98.4645L739.071 51L735.536 54.5355L783 102L778.036 106.964L739.071 68L735.536 71.5355L774.5 110.5L769.536 115.464L739.071 85L735.536 88.5355L766 119L732 153L735.536 156.536L769.536 122.536L774.5 127.5L732 170L735.536 173.536L778.036 131.036L783 136L732 187L735.536 190.536L786.536 139.536L791.5 144.5L732 204L735.536 207.536L795.036 148.036L800 153L732 221L735.536 224.536L803.536 156.536L808.5 161.5L732 238L735.536 241.536L812.036 165.036L888.536 241.536L892.071 238L815.571 161.5L820.536 156.536L888.536 224.536L892.071 221L824.071 153L829.036 148.036L888.536 207.536L892.071 204L832.571 144.5L837.536 139.536L888.536 190.536L892.071 187L841.071 136L846.036 131.036L888.536 173.536L892.071 170L849.571 127.5ZM773.071 119L778.036 123.964L783 119L778.036 114.036L773.071 119ZM781.571 110.5L786.536 115.464L791.5 110.5L786.536 105.536L781.571 110.5ZM790.071 102L795.036 106.964L800 102L795.036 97.0355L790.071 102ZM798.571 93.5L803.536 98.4645L808.5 93.5L803.536 88.5355L798.571 93.5ZM807.071 85L812.036 89.9645L817 85L812.036 80.0355L807.071 85ZM846.036 123.964L851 119L846.036 114.036L841.071 119L846.036 123.964ZM837.536 105.536L842.5 110.5L837.536 115.464L832.571 110.5L837.536 105.536ZM829.036 97.0355L834 102L829.036 106.964L824.071 102L829.036 97.0355ZM820.536 88.5355L825.5 93.5L820.536 98.4645L815.571 93.5L820.536 88.5355ZM812.036 97.0355L807.071 102L812.036 106.964L817 102L812.036 97.0355ZM803.536 105.536L798.571 110.5L803.536 115.464L808.5 110.5L803.536 105.536ZM795.036 114.036L790.071 119L795.036 123.964L800 119L795.036 114.036ZM786.536 122.536L781.571 127.5L786.536 132.464L791.5 127.5L786.536 122.536ZM837.536 122.536L842.5 127.5L837.536 132.464L832.571 127.5L837.536 122.536ZM829.036 114.036L834 119L829.036 123.964L824.071 119L829.036 114.036ZM820.536 105.536L825.5 110.5L820.536 115.464L815.571 110.5L820.536 105.536ZM790.071 136L795.036 140.964L800 136L795.036 131.036L790.071 136ZM798.571 127.5L803.536 132.464L808.5 127.5L803.536 122.536L798.571 127.5ZM807.071 119L812.036 123.964L817 119L812.036 114.036L807.071 119ZM829.036 140.964L834 136L829.036 131.036L824.071 136L829.036 140.964ZM820.536 122.536L825.5 127.5L820.536 132.464L815.571 127.5L820.536 122.536ZM812.036 131.036L807.071 136L812.036 140.964L817 136L812.036 131.036ZM803.536 139.536L798.571 144.5L803.536 149.464L808.5 144.5L803.536 139.536ZM820.536 139.536L825.5 144.5L820.536 149.464L815.571 144.5L820.536 139.536ZM812.036 148.036L807.071 153L812.036 157.964L817 153L812.036 148.036Z" fill="#E5E5E5"/>
</mask>
<g mask="url(#mask1_1217_4)">
<circle cx="812.036" cy="118.036" r="72.5" fill="#E5E5E5"/>
</g>
</g>
<g opacity="0.5">
<mask id="mask2_1217_4" style="mask-type:alpha" maskUnits="userSpaceOnUse" x="393" y="410" width="130" height="195">
<path fill-rule="evenodd" clip-rule="evenodd" d="M519.424 536.424L492.116 509.116L488.824 512.407L522.96 546.543L519.424 550.079L485.289 515.943L481.997 519.234L522.96 560.197L519.424 563.733L478.461 522.77L475.17 526.062L522.96 573.852L519.424 577.387L471.634 529.597L468.343 532.889L522.96 587.506L519.424 591.042L464.807 536.424L461.515 539.716L522.96 601.16L519.424 604.696L457.98 543.251L396.536 604.696L393 601.16L454.444 539.716L451.153 536.424L396.536 591.042L393 587.506L447.617 532.889L444.326 529.597L396.536 577.387L393 573.852L440.79 526.062L437.498 522.77L396.536 563.733L393 560.197L433.963 519.234L430.671 515.943L396.536 550.079L393 546.543L427.136 512.407L423.844 509.116L396.536 536.424L393 532.889L420.309 505.58L396.536 481.807L400.071 478.272L423.844 502.045L427.136 498.753L396.536 468.153L400.071 464.617L430.671 495.217L433.963 491.926L396.536 454.498L400.071 450.963L437.498 488.39L440.79 485.099L396.536 440.844L400.071 437.309L444.326 481.563L447.617 478.272L396.536 427.19L400.071 423.654L451.153 474.736L454.444 471.444L396.536 413.536L400.071 410L457.98 467.909L515.889 410L519.424 413.536L461.515 471.444L464.807 474.736L515.889 423.654L519.424 427.19L468.343 478.272L471.634 481.563L515.889 437.309L519.424 440.844L475.17 485.099L478.461 488.39L515.889 450.963L519.424 454.498L481.997 491.926L485.289 495.217L515.889 464.617L519.424 468.153L488.824 498.753L492.116 502.045L515.889 478.272L519.424 481.807L495.651 505.58L522.96 532.889L519.424 536.424ZM457.98 474.98L454.688 478.272L457.98 481.563L461.272 478.272L457.98 474.98ZM451.153 481.807L447.861 485.099L451.153 488.39L454.444 485.099L451.153 481.807ZM444.326 488.634L441.034 491.926L444.326 495.217L447.617 491.926L444.326 488.634ZM437.498 495.461L434.207 498.753L437.498 502.045L440.79 498.753L437.498 495.461ZM430.671 502.289L427.38 505.58L430.671 508.872L433.963 505.58L430.671 502.289ZM485.289 502.289L488.58 505.58L485.289 508.872L481.997 505.58L485.289 502.289ZM478.461 495.461L481.753 498.753L478.461 502.045L475.17 498.753L478.461 495.461ZM471.634 488.634L474.926 491.926L471.634 495.217L468.343 491.926L471.634 488.634ZM464.807 481.807L468.099 485.099L464.807 488.39L461.515 485.099L464.807 481.807ZM457.98 488.634L454.688 491.926L457.98 495.217L461.272 491.926L457.98 488.634ZM451.153 495.461L447.861 498.753L451.153 502.045L454.444 498.753L451.153 495.461ZM444.326 502.289L441.034 505.58L444.326 508.872L447.617 505.58L444.326 502.289ZM437.498 509.116L434.207 512.407L437.498 515.699L440.79 512.407L437.498 509.116ZM478.461 509.116L481.753 512.407L478.461 515.699L475.17 512.407L478.461 509.116ZM471.634 502.289L474.926 505.58L471.634 508.872L468.343 505.58L471.634 502.289ZM464.807 495.461L468.099 498.753L464.807 502.045L461.515 498.753L464.807 495.461ZM457.98 502.289L454.688 505.58L457.98 508.872L461.272 505.58L457.98 502.289ZM451.153 509.116L447.861 512.407L451.153 515.699L454.444 512.407L451.153 509.116ZM444.326 515.943L441.034 519.234L444.326 522.526L447.617 519.234L444.326 515.943ZM471.634 515.943L474.926 519.234L471.634 522.526L468.343 519.234L471.634 515.943ZM464.807 509.116L468.099 512.407L464.807 515.699L461.515 512.407L464.807 509.116ZM457.98 515.943L454.688 519.234L457.98 522.526L461.272 519.234L457.98 515.943ZM451.153 522.77L447.861 526.062L451.153 529.353L454.444 526.062L451.153 522.77ZM464.807 522.77L468.099 526.062L464.807 529.353L461.515 526.062L464.807 522.77ZM457.98 529.597L454.688 532.889L457.98 536.18L461.272 532.889L457.98 529.597Z" fill="#E5E5E5"/>
</mask>
<g mask="url(#mask2_1217_4)">
<circle cx="457.98" cy="505.501" r="58.2316" fill="#E5E5E5"/>
</g>
</g>
</svg>
